
        <svg xmlns="http://www.w3.org/2000/svg" xmlns:xlink="http://www.w3.org/1999/xlink" version="1.1" width="3170.565720730495" 
        height="634.4602186707334" viewBox="0 0 3170.565720730495 634.4602186707334">
			
			<g transform="scale(8.528286036524738) translate(10, 10)">
				<defs id="SvgjsDefs37819"><linearGradient id="SvgjsLinearGradient37824"><stop id="SvgjsStop37825" stop-color="#616161" offset="0"></stop><stop id="SvgjsStop37826" stop-color="#e6e7e8" offset="0.5"></stop><stop id="SvgjsStop37827" stop-color="#616161" offset="1"></stop></linearGradient></defs><g id="SvgjsG37820" featureKey="Df7oLJ-0" transform="matrix(0.18564781544266307,0,0,0.18564781544266307,0.031063701449086194,0)" fill="url(#SvgjsLinearGradient37824)"><defs xmlns="http://www.w3.org/2000/svg"></defs><g xmlns="http://www.w3.org/2000/svg"><path class="fil0" d="M79 230c19,-5 115,-22 127,-38 -14,41 -85,46 -130,58 -12,3 -11,12 0,9 18,-5 96,-21 108,-35 -18,52 -110,37 -143,69 -3,-16 -22,-117 44,-147 28,-12 194,-44 213,-73 -9,60 -178,77 -208,96 -6,4 -8,13 4,8 27,-11 176,-43 194,-76 -7,59 -167,83 -203,97 -8,3 -15,11 -1,8 27,-6 168,-41 191,-71 -11,57 -175,80 -197,88 -9,3 -14,12 1,7z" style="fill: url(#SvgjsLinearGradient37824);"></path><path class="fil0" d="M28 268c-20,-28 -42,-72 -17,-109 15,-23 127,-127 127,-159 23,50 -98,145 -112,174 -3,6 0,14 6,5 16,-22 115,-118 112,-153 13,28 -15,69 -47,106 -63,19 -75,77 -69,136zm80 -139c22,-28 41,-55 43,-70 6,17 -3,40 -20,64 -7,2 -15,4 -23,6z" style="fill: url(#SvgjsLinearGradient37824);"></path></g></g><g id="SvgjsG37821" featureKey="Ua4uQk-0" transform="matrix(1.3627304626777068,0,0,1.3627304626777068,72.65610356520631,9.832038104211534)" fill="#f5f3f3"><path d="M3.66 7.300000000000001 l0 4.98 l3.86 0 c1.74 0 2.92 -0.64 2.92 -2.58 c0 -1.82 -1.24 -2.4 -2.84 -2.4 l-3.94 0 z M3.66 13.940000000000001 l0 6.06 l-1.94 0 l0 -14.36 l6.46 0 c2.66 0 4.26 1.72 4.26 4.04 c0 2 -1.14 4.26 -4.26 4.26 l-4.52 0 z M16.8 5.640000000000001 l0 12.64 l7.28 0 l0 1.72 l-9.22 0 l0 -14.36 l1.94 0 z M34 15.82 l-5.76 0 l-1.5 4.18 l-2 0 l5.4 -14.36 l2.2 0 l5.2 14.36 l-2.12 0 z M28.84 14.1 l4.46 0 l-2.12 -6.32 l-0.04 0 z M38.08 7.359999999999999 l0 -1.72 l11.66 0 l0 1.72 l-4.86 0 l0 12.64 l-1.94 0 l0 -12.64 l-4.86 0 z M53.779999999999994 5.640000000000001 l0 14.36 l-1.94 0 l0 -14.36 l1.94 0 z M66.62 17.240000000000002 l0 -11.6 l1.88 0 l0 14.36 l-2.18 0 l-7.3 -11.6 l-0.04 0 l0 11.6 l-1.88 0 l0 -14.36 l2.3 0 l7.18 11.6 l0.04 0 z M80.96 5.640000000000001 l1.94 0 l0 9.32 c0 2.94 -1.84 5.42 -5.78 5.42 c-3.86 0 -5.52 -2.48 -5.52 -5.16 l0 -9.58 l1.94 0 l0 9.04 c0 3.12 1.9 3.98 3.64 3.98 c1.78 0 3.78 -0.82 3.78 -3.94 l0 -9.08 z M99.67999999999999 20 l-1.88 0 l0 -8.48 c0 -0.42 0.04 -2.24 0.04 -3.58 l-0.04 0 l-4.04 12.06 l-1.92 0 l-4.04 -12.04 l-0.04 0 c0 1.32 0.04 3.14 0.04 3.56 l0 8.48 l-1.88 0 l0 -14.36 l2.78 0 l4.1 12.14 l0.04 0 l4.08 -12.14 l2.76 0 l0 14.36 z M110.13999999999999 5.640000000000001 l0 12.64 l7.28 0 l0 1.72 l-9.22 0 l0 -14.36 l1.94 0 z M121.56 5.640000000000001 l0 14.36 l-1.94 0 l0 -14.36 l1.94 0 z M134.4 17.240000000000002 l0 -11.6 l1.88 0 l0 14.36 l-2.18 0 l-7.3 -11.6 l-0.04 0 l0 11.6 l-1.88 0 l0 -14.36 l2.3 0 l7.18 11.6 l0.04 0 z M150.12 18.28 l0 1.72 l-10.6 0 l0 -14.36 l10.46 0 l0 1.72 l-8.52 0 l0 4.4 l7.86 0 l0 1.72 l-7.86 0 l0 4.8 l8.66 0 z M160.16000000000003 5.640000000000001 l0 12.64 l7.28 0 l0 1.72 l-9.22 0 l0 -14.36 l1.94 0 z M171.58 5.640000000000001 l0 14.36 l-1.94 0 l0 -14.36 l1.94 0 z M188.60000000000002 20 l-1.88 0 l0 -8.48 c0 -0.42 0.04 -2.24 0.04 -3.58 l-0.04 0 l-4.04 12.06 l-1.92 0 l-4.04 -12.04 l-0.04 0 c0 1.32 0.04 3.14 0.04 3.56 l0 8.48 l-1.88 0 l0 -14.36 l2.78 0 l4.1 12.14 l0.04 0 l4.08 -12.14 l2.76 0 l0 14.36 z M202.82000000000002 12.82 c0 -3.38 -1.88 -5.84 -5 -5.84 s-5 2.46 -5 5.84 s1.88 5.84 5 5.84 s5 -2.46 5 -5.84 z M204.82000000000002 12.82 c0 3.1 -1.64 7.56 -7 7.56 s-7 -4.46 -7 -7.56 s1.64 -7.56 7 -7.56 s7 4.46 7 7.56 z"></path></g>
			</g>
		</svg>
	