
        <svg xmlns="http://www.w3.org/2000/svg" xmlns:xlink="http://www.w3.org/1999/xlink" version="1.1" width="3180.090807911555" 
        height="1375.8937724442799" viewBox="0 0 3180.090807911555 1375.8937724442799">
			
			<g transform="scale(9.004540395577747) translate(10, 10)">
				<defs id="SvgjsDefs1740"><linearGradient id="SvgjsLinearGradient1747"><stop id="SvgjsStop1748" stop-color="#616161" offset="0"></stop><stop id="SvgjsStop1749" stop-color="#e6e7e8" offset="0.5"></stop><stop id="SvgjsStop1750" stop-color="#616161" offset="1"></stop></linearGradient></defs><g id="SvgjsG1741" featureKey="symbolFeature-0" transform="matrix(1.002737743815273,0,0,1.002737743815273,116.32978857786763,-8.01688814704888)" fill="url(#SvgjsLinearGradient1747)"><g xmlns="http://www.w3.org/2000/svg"><line x1="47.58" y1="81.591" x2="48.16" y2="83.139"></line><line x1="49.177" y1="65.302" x2="49.713" y2="66.835"></line><polygon points="75.893,36.894 80.277,50.509 50.051,7.995 19.776,50.509 24.107,36.894 6.652,20.053 6.755,71.207 29.526,71.207    50.051,45.753 70.471,71.207 93.24,71.207 93.348,20.053  "></polygon><rect x="6.652" y="81.623" width="86.594" height="10.382"></rect></g></g><g id="SvgjsG1742" featureKey="nameLeftFeature-0" transform="matrix(2.274881886738727,0,0,2.274881886738727,-2.274881886738727,86.1649213218561)" fill="#e7eaed"><path d="M5.54 7.880000000000001 l0 0.06 c3.42 0 4.2 1.42 4.2 3.18 c0 1.74 -0.78 3.18 -4.2 3.18 l-1.64 0 l0 4.26 c0 0.54 0.32 1.02 0.82 1.22 l0.32 0.12 l0 0.16 l-4.04 0 l0 -0.16 l0.32 -0.12 c0.5 -0.2 0.82 -0.68 0.82 -1.22 l0 -9.18 c0 -0.54 -0.32 -1.02 -0.82 -1.22 l-0.32 -0.12 l0 -0.16 l4.54 0 z M5.54 13.440000000000001 l0 0.02 c1.06 0 2.44 -0.3 2.44 -2.32 s-1.38 -2.32 -2.44 -2.32 l-1.64 0 l0 4.62 l1.64 0 z M20.055500000000002 17.62 l0.16 0.04 l-0.34 2.36 l-9.1 0 l0 -0.16 l0.32 -0.12 c0.5 -0.2 0.82 -0.68 0.82 -1.22 l0 -9.18 c0 -0.54 -0.32 -1.02 -0.82 -1.22 l-0.32 -0.12 l0 -0.16 l4.04 0 l0 0.16 l-0.32 0.12 c-0.5 0.2 -0.82 0.68 -0.82 1.22 l0 9.78 l4.48 0 c0.36 0 0.72 -0.16 0.96 -0.44 z M33.131 19.68 l0.46 0.16 l0 0.16 l-4.48 0 l0 -0.16 l0.72 -0.28 c0.34 -0.12 0.5 -0.5 0.38 -0.84 l-1.28 -3.34 l-4.06 0 l-1.3 3.38 c-0.12 0.34 0.04 0.72 0.38 0.84 l0.62 0.24 l0 0.16 l-3.3 0 l0 -0.16 l0.16 -0.06 c0.6 -0.24 1.08 -0.72 1.32 -1.32 l4.08 -10.58 l0.94 0 l4.04 10.48 c0.24 0.6 0.72 1.08 1.32 1.32 z M25.211000000000002 14.52 l3.4 0 l-1.7 -4.38 z M45.5265 7.880000000000001 l0.34 2.36 l-0.16 0.02 l-0.94 -1.06 c-0.24 -0.28 -0.6 -0.44 -0.96 -0.44 l-2.68 0 l0 9.78 c0 0.54 0.32 1.02 0.82 1.22 l0.32 0.12 l0 0.16 l-4.04 0 l0 -0.16 l0.32 -0.12 c0.5 -0.2 0.82 -0.68 0.82 -1.22 l0 -9.78 l-2.68 0 c-0.36 0 -0.72 0.16 -0.96 0.44 l-0.94 1.06 l-0.16 -0.02 l0.34 -2.36 l10.56 0 z M50.622 8.14 c-0.5 0.2 -0.82 0.68 -0.82 1.22 l0 9.18 c0 0.54 0.32 1.02 0.82 1.22 l0.32 0.12 l0 0.16 l-4.04 0 l0 -0.16 l0.32 -0.12 c0.5 -0.2 0.82 -0.68 0.82 -1.22 l0 -9.18 c0 -0.54 -0.32 -1.02 -0.82 -1.22 l-0.32 -0.12 l0 -0.16 l4.04 0 l0 0.16 z M63.4175 8.14 c-0.5 0.2 -0.82 0.68 -0.82 1.22 l0 9.18 c0 0.54 0.32 1.02 0.82 1.22 l0.32 0.12 l0 0.16 l-2.02 0 l-7.72 -10.74 l0 9.28 c0 0.54 0.32 1.02 0.82 1.22 l0.32 0.12 l0 0.16 l-3.16 0 l0 -0.16 l0.32 -0.12 c0.5 -0.2 0.82 -0.68 0.82 -1.22 l0 -9.18 c0 -0.54 -0.32 -1.02 -0.82 -1.22 l-0.32 -0.12 l0 -0.16 l3.18 0 l6.56 9.12 l0 -7.66 c0 -0.54 -0.32 -1.02 -0.82 -1.22 l-0.32 -0.12 l0 -0.16 l3.16 0 l0 0.16 z M73.15299999999999 7.880000000000001 l3.18 0.02 l0 0.16 l-0.32 0.12 c-0.5 0.2 -0.82 0.68 -0.82 1.22 l0 7.04 c0 2.24 -1.82 4.06 -4.06 4.06 l-1.16 0 c-2.24 0 -4.06 -1.82 -4.06 -4.06 l0 -7.04 c0 -0.54 -0.32 -1.02 -0.82 -1.22 l-0.32 -0.12 l0 -0.16 l4.04 0 l0 0.16 l-0.32 0.12 c-0.5 0.2 -0.82 0.68 -0.82 1.22 l0 7.04 c0 1.74 0.78 3.16 2.52 3.16 l0.92 0 c1.76 0 3.18 -1.42 3.18 -3.18 l0 -7.04 c0 -0.54 -0.32 -1.02 -0.82 -1.22 l-0.32 -0.12 l0 -0.16 z M90.7285 8.14 l-0.02 0 c-0.5 0.2 -0.82 0.68 -0.82 1.22 l0 9.18 c0 0.54 0.32 1.02 0.82 1.22 l0.32 0.12 l0 0.16 l-4.04 0 l0 -0.16 l0.32 -0.12 c0.5 -0.2 0.82 -0.68 0.82 -1.22 l0 -9.28 l-4.4 5.22 l-4.4 -5.22 l0 9.28 c0 0.54 0.32 1.02 0.82 1.22 l0.32 0.12 l0 0.16 l-3.16 0 l0 -0.16 l0.32 -0.12 c0.5 -0.2 0.82 -0.68 0.82 -1.22 l0 -9.18 c0 -0.54 -0.32 -1.02 -0.82 -1.22 l-0.32 -0.12 l0 -0.16 l3.16 0 l0 0.02 l3.84 4.54 l3.84 -4.54 l0 -0.02 l2.9 0 l0 0.16 z "></path></g><g id="SvgjsG1743" featureKey="nameRightFeature-0" transform="matrix(2.3606559591439633,0,0,2.3606559591439633,210.1278692584306,85.4924524175099)" fill="#e3e9ed"><path d="M15.579999999999998 17.62 l0.16 0.04 l-0.34 2.36 l-9.1 0 l0 -0.16 l0.32 -0.12 c0.5 -0.2 0.82 -0.68 0.82 -1.22 l0 -9.18 c0 -0.54 -0.32 -1.02 -0.82 -1.22 l-0.32 -0.12 l0 -0.16 l4.04 0 l0 0.16 l-0.32 0.12 c-0.5 0.2 -0.82 0.68 -0.82 1.22 l0 9.78 l4.48 0 c0.36 0 0.72 -0.16 0.96 -0.44 z M21.459999999999997 8.14 c-0.5 0.2 -0.82 0.68 -0.82 1.22 l0 9.18 c0 0.54 0.32 1.02 0.82 1.22 l0.32 0.12 l0 0.16 l-4.04 0 l0 -0.16 l0.32 -0.12 c0.5 -0.2 0.82 -0.68 0.82 -1.22 l0 -9.18 c0 -0.54 -0.32 -1.02 -0.82 -1.22 l-0.32 -0.12 l0 -0.16 l4.04 0 l0 0.16 z M37.18 8.14 l-0.02 0 c-0.5 0.2 -0.82 0.68 -0.82 1.22 l0 9.18 c0 0.54 0.32 1.02 0.82 1.22 l0.32 0.12 l0 0.16 l-4.04 0 l0 -0.16 l0.32 -0.12 c0.5 -0.2 0.82 -0.68 0.82 -1.22 l0 -9.28 l-4.4 5.22 l-4.4 -5.22 l0 9.28 c0 0.54 0.32 1.02 0.82 1.22 l0.32 0.12 l0 0.16 l-3.16 0 l0 -0.16 l0.32 -0.12 c0.5 -0.2 0.82 -0.68 0.82 -1.22 l0 -9.18 c0 -0.54 -0.32 -1.02 -0.82 -1.22 l-0.32 -0.12 l0 -0.16 l3.16 0 l0 0.02 l3.84 4.54 l3.84 -4.54 l0 -0.02 l2.9 0 l0 0.16 z  M45.82 7.880000000000001 c3.24 0 6.3 2.12 6.3 6.08 c0 3.94 -3.06 6.06 -6.3 6.06 s-6.32 -2.12 -6.32 -6.06 c0 -3.96 3.08 -6.08 6.32 -6.08 z M45.82 19.14 c2.78 0 4.6 -2.32 4.6 -5.18 s-1.82 -5.18 -4.6 -5.18 s-4.62 2.32 -4.62 5.18 s1.84 5.18 4.62 5.18 z"></path></g>
			</g>
		</svg>
	